<svg width="17" height="15" viewBox="0 0 17 15" fill="none" xmlns="http://www.w3.org/2000/svg">
<path d="M9.08077 15L8.07692 14.4231L10.3846 10.3846H13.8462C14.1522 10.3846 14.4457 10.263 14.662 10.0467C14.8784 9.83027 15 9.53679 15 9.23077V2.30769C15 2.00167 14.8784 1.70819 14.662 1.4918C14.4457 1.27541 14.1522 1.15385 13.8462 1.15385H2.30769C2.00167 1.15385 1.70819 1.27541 1.4918 1.4918C1.27541 1.70819 1.15385 2.00167 1.15385 2.30769V9.23077C1.15385 9.53679 1.27541 9.83027 1.4918 10.0467C1.70819 10.263 2.00167 10.3846 2.30769 10.3846H7.5V11.5385H2.30769C1.69565 11.5385 1.10868 11.2953 0.675907 10.8626C0.243131 10.4298 0 9.84281 0 9.23077V2.30769C0 1.69565 0.243131 1.10868 0.675907 0.675907C1.10868 0.243131 1.69565 0 2.30769 0H13.8462C14.4582 0 15.0452 0.243131 15.4779 0.675907C15.9107 1.10868 16.1538 1.69565 16.1538 2.30769V9.23077C16.1538 9.84281 15.9107 10.4298 15.4779 10.8626C15.0452 11.2953 14.4582 11.5385 13.8462 11.5385H11.0538L9.08077 15Z" fill="white"/>
<path d="M3.46163 3.46161H12.6924V4.61546H3.46163V3.46161ZM3.46163 6.92315H9.23086V8.077H3.46163V6.92315Z" fill="white"/>
</svg>
