<svg width="10" height="10" viewBox="0 0 10 10" fill="none" xmlns="http://www.w3.org/2000/svg">
<path d="M3.75 8.75H2.08333C1.86232 8.75 1.65036 8.6622 1.49408 8.50592C1.3378 8.34964 1.25 8.13768 1.25 7.91667V2.08333C1.25 1.86232 1.3378 1.65036 1.49408 1.49408C1.65036 1.3378 1.86232 1.25 2.08333 1.25H3.75M6.66667 7.08333L8.75 5L6.66667 2.91667M8.75 5H3.75H8.75Z" fill="#1B1B1B" fill-opacity="0.8"/>
<path d="M3.75 8.75H2.08333C1.86232 8.75 1.65036 8.6622 1.49408 8.50592C1.3378 8.34964 1.25 8.13768 1.25 7.91667V2.08333C1.25 1.86232 1.3378 1.65036 1.49408 1.49408C1.65036 1.3378 1.86232 1.25 2.08333 1.25H3.75M6.66667 7.08333L8.75 5M8.75 5L6.66667 2.91667M8.75 5H3.75" stroke="#404040" stroke-linecap="round" stroke-linejoin="round"/>
</svg>
