<svg width="28" height="29" viewBox="0 0 28 29" fill="none" xmlns="http://www.w3.org/2000/svg">
<path d="M0 1.75469V2.35319H28V1.75469L14 0L0 1.75469Z" fill="#CCA876"/>
<path d="M26.6 4.66558C26.6 3.97186 27.0926 3.46858 28 3.0061H24.837H21.6741C22.5815 3.46858 23.0741 3.97186 23.0741 4.66558V20.4034C23.0741 21.0971 22.5815 21.6004 21.6741 22.0629L18.2519 23.8584C17.1111 23.6271 15.6074 23.4911 13.9741 23.4911C12.3407 23.4911 10.863 23.6271 9.72222 23.8448L6.32593 22.0629C5.41852 21.6004 4.92593 21.0971 4.92593 20.4034V4.66558C4.92593 3.97186 5.41852 3.46858 6.32593 3.0061H3.16296H0C0.907407 3.46858 1.4 3.97186 1.4 4.66558V20.4034C1.4 21.0971 0.907407 21.6004 0 22.0629L12.7037 28.7144C13.0407 28.9048 13.4815 29 13.9741 29C14.4667 29 14.9074 28.9048 15.2444 28.7144L28 22.0629C27.0926 21.6004 26.6 21.0971 26.6 20.4034V4.66558Z" fill="#CCA876"/>
<path d="M12.237 20.4034C12.237 21.0155 11.8222 21.4916 11.0963 21.9132C11.9778 21.818 12.937 21.7636 13.9741 21.7636C15.037 21.7636 16.0222 21.818 16.9037 21.9132C16.1778 21.5052 15.763 21.0291 15.763 20.4034V4.66558C15.763 3.97186 16.2556 3.46858 17.163 3.0061H14H10.837C11.7444 3.46858 12.237 3.97186 12.237 4.66558V20.4034Z" fill="#CCA876"/>
</svg>
